<svg height="511.99957pt" viewBox="0 0 511.99957 511.99957" width="511.99957pt" xmlns="http://www.w3.org/2000/svg"><path d="m189.90625 492.230469-102.953125 14.144531-37.921875 5.210938c-28.308594 3.890624-52.507812-20.308594-48.617188-48.617188l5.210938-37.921875 14.144531-102.953125 120.910157 62.316406zm0 0" fill="#fed563"/><path d="m273.425781 68.433594 170.136719 170.136718-253.652344 253.652344-170.136718-170.136718zm0 0" fill="#55c7f3"/><path d="m443.5625 238.574219-114.984375-114.984375-55.15625-55.152344-43.9375 43.9375-209.710937 209.714844 55.152343 55.152344 175.996094-175.996094c18.625-18.621094 48.816406-18.621094 67.4375 0l81.265625 81.265625zm0 0" fill="#17a3ce"/><path d="m495.613281 186.523438-45.226562 45.226562c-6.09375 6.097656-15.964844 6.097656-22.0625 0l-148.074219-148.074219c-6.097656-6.097656-6.097656-15.96875 0-22.0625l45.226562-45.226562c21.847657-21.847657 57.277344-21.847657 79.125 0l91.011719 91.011719c21.847657 21.847656 21.847657 57.277343 0 79.125zm0 0" fill="#d61e4f"/><path d="m495.613281 186.523438-45.226562 45.226562c-6.09375 6.097656-15.964844 6.097656-22.0625 0l-103.203125-103.203125c-6.09375-6.09375-6.09375-15.96875 0-22.0625l45.226562-45.226563c21.847656-21.847656 57.277344-21.847656 79.125 0l46.140625 46.144532c21.847657 21.84375 21.847657 57.273437 0 79.121094zm0 0" fill="#fc315f"/><path d="m450.574219 254c-12.132813 12.132812-31.804688 12.132812-43.9375 0l-148.636719-148.636719c-6.066406-6.066406-9.097656-14.015625-9.105469-21.96875.007813-7.957031 3.039063-15.902343 9.105469-21.96875 12.132812-12.136719 31.804688-12.136719 43.9375 0l148.636719 148.636719c6.066406 6.066406 9.09375 14.011719 9.105469 21.96875-.007813 7.953125-3.039063 15.902344-9.105469 21.96875zm0 0" fill="#fcbb65"/><path d="m450.574219 254c-12.132813 12.132812-31.804688 12.132812-43.9375 0l-107.503907-107.503906c-6.066406-6.070313-9.097656-14.015625-9.105468-21.96875.007812-7.957032 3.039062-15.902344 9.105468-21.96875 12.132813-12.136719 31.800782-12.136719 43.9375 0l107.503907 107.503906c6.066406 6.066406 9.09375 14.011719 9.105469 21.96875-.007813 7.953125-3.039063 15.902344-9.105469 21.96875zm0 0" fill="#fed563"/><path d="m12.644531 499.355469c-9.105469-9.105469-14.171875-22.230469-12.226562-36.382813l5.207031-37.925781 14.144531-102.953125 55.152344 55.152344-42.933594 74.164062-15.820312 27.3125c-5.898438 10.199219-6.730469 17.425782-3.523438 20.632813zm0 0" fill="#fcbb65"/><path d="m86.953125 506.375-37.925781 5.207031c-14.152344 1.945313-27.277344-3.121093-36.382813-12.226562s-14.171875-22.230469-12.226562-36.382813l5.207031-37.925781c12.078125 1.644531 23.894531 5.609375 34.738281 11.890625 7.011719 4.054688 13.609375 9.085938 19.613281 15.085938 15.273438 15.277343 24.273438 34.46875 26.976563 54.351562zm0 0" fill="#fc315f"/><path d="m12.644531 499.355469c-9.105469-9.105469-14.171875-22.230469-12.226562-36.382813l5.207031-37.925781c12.078125 1.644531 23.894531 5.609375 34.738281 11.890625l-8.378906 14.46875-15.816406 27.316406c-5.898438 10.199219-6.730469 17.425782-3.523438 20.632813zm0 0" fill="#d61e4f"/><g fill="#0c99ba"><path d="m167.039062 420.164062c-2 0-4.007812-.765624-5.535156-2.292968-3.054687-3.058594-3.054687-8.015625 0-11.070313l172.226563-172.226562c3.058593-3.058594 8.015625-3.058594 11.070312 0 3.058594 3.058593 3.058594 8.011719 0 11.070312l-172.226562 172.226563c-1.527344 1.527344-3.53125 2.292968-5.535157 2.292968zm0 0"/><path d="m99.664062 352.785156c-2.003906 0-4.007812-.761718-5.535156-2.292968-3.058594-3.058594-3.058594-8.011719 0-11.070313l172.226563-172.226563c3.058593-3.054687 8.011719-3.054687 11.070312 0 3.058594 3.058594 3.058594 8.015626 0 11.070313l-172.226562 172.226563c-1.53125 1.53125-3.53125 2.292968-5.535157 2.292968zm0 0"/></g></svg>
