<svg height="512pt" viewBox="-41 0 511 512" width="512pt" xmlns="http://www.w3.org/2000/svg"><path d="m200.355469 0h30v495.992188h-30zm0 0" fill="#a0401a"/><path d="m215.355469 0h15v495.992188h-15zm0 0" fill="#862712"/><path d="m430.210938 304.765625h-429.710938v-272.570313h429.710938zm0 0" fill="#e1eaee"/><path d="m430.210938 304.765625h-214.855469v-272.570313h214.855469zm0 0" fill="#c4d5dd"/><path d="m195.277344 240.679688h-137.160156v-150.988282h137.160156zm0 0" fill="#fa235e"/><g fill="#00aadf"><path d="m233.167969 90.371094h137.765625v30h-137.765625zm0 0"/><path d="m233.167969 150.375h137.765625v30h-137.765625zm0 0"/><path d="m233.167969 210.378906h137.765625v30h-137.765625zm0 0"/></g><path d="m164.667969 482h101.371093v30h-101.371093zm0 0" fill="#862712"/><path d="m215.355469 482h50.6875v30h-50.6875zm0 0" fill="#582817"/></svg>