<?xml version="1.0" encoding="iso-8859-1"?>
<!-- Generator: Adobe Illustrator 19.0.0, SVG Export Plug-In . SVG Version: 6.00 Build 0)  -->
<svg xmlns="http://www.w3.org/2000/svg" xmlns:xlink="http://www.w3.org/1999/xlink" version="1.1" id="Layer_1" x="0px" y="0px" viewBox="0 0 490.003 490.003" style="enable-background:new 0 0 490.003 490.003;" xml:space="preserve" width="512" height="512">
<g>
	<path style="fill:#F75454;" d="M490.003,245.002c0,52.93-16.78,101.94-45.32,142c-12.88,18.06-28.14,34.31-45.33,48.27   c-7.5,6.09-15.36,11.74-23.55,16.92c-37.84,23.95-82.7,37.81-130.8,37.81c-135.31,0-245-109.69-245-245s109.69-245,245-245   S490.003,109.691,490.003,245.002z"/>
	<circle style="fill:#FFE05C;" cx="189.677" cy="189.68" r="189.677"/>
	<circle style="fill:#FFA733;" cx="189.677" cy="189.68" r="154.055"/>
	<path style="fill:#FFFFFF;" d="M323.803,189.681c0,74.07-60.05,134.12-134.13,134.12c-4.17,0-8.3-0.19-12.38-0.56   c-68.27-6.25-121.74-63.66-121.74-133.56c0-69.91,53.47-127.31,121.74-133.56c4.08-0.37,8.21-0.56,12.38-0.56   C263.753,55.562,323.803,115.602,323.803,189.681z"/>
	<path style="fill:#BCE6F5;" d="M299.043,189.681c0,69.9-53.47,127.31-121.75,133.56c-68.27-6.25-121.74-63.66-121.74-133.56   c0-69.91,53.47-127.31,121.74-133.56C245.573,62.372,299.043,119.772,299.043,189.681z"/>
	<g>
		<path style="fill:#3B9CB7;" d="M444.683,387.002c-18.49,25.94-41.9,48.13-68.88,65.19c-15.77-21.13-29.98-44.76-42.12-64.08    c-9.52-15.15-17.76-27.65-24.49-34.24l32.82-33.53c6.81,6.67,19.72,14.77,35.33,24.11    C397.723,356.651,422.693,370.961,444.683,387.002z"/>
		<path style="fill:#2589A0;" d="M399.353,435.272c-7.5,6.09-15.36,11.74-23.55,16.92c-28.12-37.68-51.29-83.32-66.61-98.32    l10.05-10.27C335.103,359.131,366.943,399.852,399.353,435.272z"/>
		<path style="fill:#2589A0;" d="M378.959,294.793c9.164,9.164,9.157,24.021,0,33.178l-60.818,60.818    c-4.575,4.575-10.586,6.866-16.589,6.873c-5.996,0-12.007-2.291-16.589-6.873c-9.157-9.157-9.15-24.013,0.007-33.17l60.818-60.818    c4.582-4.582,10.578-6.873,16.589-6.873C368.374,287.927,374.384,290.218,378.959,294.793z"/>
		<path style="fill:#2589A0;" d="M377.34,344.454l-43.657,43.657c-9.518-15.146-17.762-27.648-24.494-34.238l32.824-33.531    C348.822,327.009,361.734,335.112,377.34,344.454z"/>
		<path style="fill:#3B9CB7;" d="M378.959,294.793c9.164,9.164,9.157,24.021,0,33.178l-42.158,42.158    c-4.582,4.582-10.586,6.866-16.589,6.873c-6.003,0.007-12.007-2.291-16.589-6.873c-9.157-9.157-9.157-24.006,0.007-33.17    l42.158-42.158c4.582-4.582,10.578-6.873,16.589-6.873C368.374,287.927,374.384,290.218,378.959,294.793z"/>
	</g>
</g>
</svg>
